<mxfile host="app.diagrams.net" modified="2022-07-25T17:26:56.437Z" agent="5.0 (Windows NT 10.0; Win64; x64) AppleWebKit/537.36 (KHTML, like Gecko) Chrome/103.0.0.0 Safari/537.36" etag="gWNwaWN62JyGUYaKRZFE" version="20.1.3" type="github">
  <diagram id="1iRgEVnKiaMN5yoM-uST" name="Página-1">
    <mxGraphModel dx="1422" dy="754" grid="1" gridSize="10" guides="1" tooltips="1" connect="1" arrows="1" fold="1" page="1" pageScale="1" pageWidth="827" pageHeight="1169" math="0" shadow="0">
      <root>
        <mxCell id="0" />
        <mxCell id="1" parent="0" />
        <mxCell id="JSjy1cxlgKcaDX9TTvAw-1" value="&lt;font style=&quot;vertical-align: inherit;&quot;&gt;&lt;font style=&quot;vertical-align: inherit;&quot;&gt;&lt;font style=&quot;vertical-align: inherit;&quot;&gt;&lt;font style=&quot;vertical-align: inherit;&quot;&gt;&lt;font size=&quot;3&quot;&gt;&lt;b&gt;Inicio&lt;/b&gt;&lt;/font&gt;&lt;br&gt;&lt;/font&gt;&lt;/font&gt;&lt;/font&gt;&lt;/font&gt;" style="ellipse;whiteSpace=wrap;html=1;fontColor=#46495D;strokeColor=#788AA3;fillColor=#B2C9AB;" vertex="1" parent="1">
          <mxGeometry x="340" width="120" height="80" as="geometry" />
        </mxCell>
        <mxCell id="JSjy1cxlgKcaDX9TTvAw-2" value="&lt;font style=&quot;vertical-align: inherit;&quot;&gt;&lt;font style=&quot;vertical-align: inherit;&quot;&gt;Data Atual&amp;nbsp;&lt;/font&gt;&lt;/font&gt;" style="rounded=0;whiteSpace=wrap;html=1;fontColor=#46495D;strokeColor=#788AA3;fillColor=#B2C9AB;" vertex="1" parent="1">
          <mxGeometry x="340" y="140" width="120" height="60" as="geometry" />
        </mxCell>
        <mxCell id="JSjy1cxlgKcaDX9TTvAw-3" value="" style="endArrow=classic;html=1;rounded=0;fontColor=#46495D;strokeColor=#788AA3;fillColor=#B2C9AB;entryX=0.5;entryY=0;entryDx=0;entryDy=0;" edge="1" parent="1" source="JSjy1cxlgKcaDX9TTvAw-1" target="JSjy1cxlgKcaDX9TTvAw-2">
          <mxGeometry width="50" height="50" relative="1" as="geometry">
            <mxPoint x="390" y="220" as="sourcePoint" />
            <mxPoint x="410" y="340" as="targetPoint" />
          </mxGeometry>
        </mxCell>
        <mxCell id="JSjy1cxlgKcaDX9TTvAw-4" value="Data que o usuário vai colocar" style="html=1;strokeWidth=2;shape=manualInput;whiteSpace=wrap;rounded=1;size=26;arcSize=11;fontColor=#46495D;fillColor=#B2C9AB;" vertex="1" parent="1">
          <mxGeometry x="330" y="260" width="140" height="80" as="geometry" />
        </mxCell>
        <mxCell id="JSjy1cxlgKcaDX9TTvAw-5" value="" style="endArrow=classic;html=1;rounded=0;fontColor=#46495D;strokeColor=#788AA3;fillColor=#B2C9AB;exitX=0.5;exitY=1;exitDx=0;exitDy=0;" edge="1" parent="1" source="JSjy1cxlgKcaDX9TTvAw-2" target="JSjy1cxlgKcaDX9TTvAw-4">
          <mxGeometry width="50" height="50" relative="1" as="geometry">
            <mxPoint x="360" y="380" as="sourcePoint" />
            <mxPoint x="410" y="330" as="targetPoint" />
          </mxGeometry>
        </mxCell>
        <mxCell id="JSjy1cxlgKcaDX9TTvAw-6" value="Data Atual&lt;br&gt;+&lt;br&gt;Data inserida usuario" style="rhombus;whiteSpace=wrap;html=1;fontColor=#46495D;strokeColor=#788AA3;fillColor=#B2C9AB;" vertex="1" parent="1">
          <mxGeometry x="320" y="370" width="160" height="150" as="geometry" />
        </mxCell>
        <mxCell id="JSjy1cxlgKcaDX9TTvAw-8" value="" style="endArrow=classic;html=1;rounded=0;fontColor=#46495D;strokeColor=#788AA3;fillColor=#B2C9AB;entryX=0.5;entryY=0;entryDx=0;entryDy=0;exitX=0.5;exitY=1;exitDx=0;exitDy=0;" edge="1" parent="1" source="JSjy1cxlgKcaDX9TTvAw-4" target="JSjy1cxlgKcaDX9TTvAw-6">
          <mxGeometry width="50" height="50" relative="1" as="geometry">
            <mxPoint x="360" y="360" as="sourcePoint" />
            <mxPoint x="410" y="310" as="targetPoint" />
          </mxGeometry>
        </mxCell>
        <mxCell id="JSjy1cxlgKcaDX9TTvAw-9" value="Se sim permitiro evento (&lt;b&gt;irpara idade&lt;/b&gt;)" style="rounded=0;whiteSpace=wrap;html=1;fontColor=#46495D;strokeColor=#788AA3;fillColor=#B2C9AB;" vertex="1" parent="1">
          <mxGeometry x="580" y="415" width="120" height="60" as="geometry" />
        </mxCell>
        <mxCell id="JSjy1cxlgKcaDX9TTvAw-10" value="" style="endArrow=classic;html=1;rounded=0;fontColor=#46495D;strokeColor=#788AA3;fillColor=#B2C9AB;entryX=0;entryY=0.5;entryDx=0;entryDy=0;exitX=1;exitY=0.5;exitDx=0;exitDy=0;" edge="1" parent="1" source="JSjy1cxlgKcaDX9TTvAw-6" target="JSjy1cxlgKcaDX9TTvAw-9">
          <mxGeometry width="50" height="50" relative="1" as="geometry">
            <mxPoint x="360" y="360" as="sourcePoint" />
            <mxPoint x="410" y="310" as="targetPoint" />
          </mxGeometry>
        </mxCell>
        <mxCell id="JSjy1cxlgKcaDX9TTvAw-12" value="Se não escrever alerta (&lt;b&gt;data inválida&lt;/b&gt;)" style="rounded=0;whiteSpace=wrap;html=1;fontColor=#46495D;strokeColor=#788AA3;fillColor=#B2C9AB;" vertex="1" parent="1">
          <mxGeometry x="90" y="415" width="120" height="60" as="geometry" />
        </mxCell>
        <mxCell id="JSjy1cxlgKcaDX9TTvAw-13" value="" style="endArrow=classic;html=1;rounded=0;fontColor=#46495D;strokeColor=#788AA3;fillColor=#B2C9AB;entryX=1;entryY=0.5;entryDx=0;entryDy=0;exitX=0;exitY=0.5;exitDx=0;exitDy=0;" edge="1" parent="1" source="JSjy1cxlgKcaDX9TTvAw-6" target="JSjy1cxlgKcaDX9TTvAw-12">
          <mxGeometry width="50" height="50" relative="1" as="geometry">
            <mxPoint x="360" y="350" as="sourcePoint" />
            <mxPoint x="410" y="300" as="targetPoint" />
          </mxGeometry>
        </mxCell>
        <mxCell id="JSjy1cxlgKcaDX9TTvAw-14" value="Sim" style="rounded=1;whiteSpace=wrap;html=1;fontColor=#46495D;strokeColor=#788AA3;fillColor=#B2C9AB;" vertex="1" parent="1">
          <mxGeometry x="500" y="410" width="50" height="20" as="geometry" />
        </mxCell>
        <mxCell id="JSjy1cxlgKcaDX9TTvAw-15" value="Não" style="rounded=1;whiteSpace=wrap;html=1;fontColor=#46495D;strokeColor=#788AA3;fillColor=#B2C9AB;" vertex="1" parent="1">
          <mxGeometry x="240" y="410" width="50" height="20" as="geometry" />
        </mxCell>
      </root>
    </mxGraphModel>
  </diagram>
</mxfile>
